P3
2 2
255
76
76
76
76
76
76

149
149
149
29
29
29

